:SAMPLES-PER-SECOND 30
:FULLY-SPECIFIED
:DEGREES
345
root  -7.52096 35.3746 9.15506 -40.0071 -83.8816 27.7474
RightUpLeg  -2.67364 -12.6806 -32.358
RightLeg  38.0322 -6.23534 -5.48972
RightFoot  -4.22679 -1.92712 29.7643
RightToes  6.35927e-011 1.30204e-014 -6.03759e-014
Spine  24.351 -0.150965 3.86543
Spine1  0.845172 1.27498 -2.39311
HEad  -14.6974 -5.16627 -7.52056
LeftShoulder1  2.059 -3.91186 -21.3973
LeftArm  -12.6154 16.7739 -48.3888
LeftForeArm  169.262 -74.7928 -144.64
LeftHand  -8.6708 28.2555 -39.2279
RightShoulder  1.55753 2.4385 19.8465
RightArm  -7.69796 -21.4408 45.6664
RightForeArm  176.922 74.5017 146.49
RightHand  -2.14568 -11.0226 38.5074
LeftUpLeg  -16.7286 15.6447 23.752
LeftLeg  62.5287 -5.66003 -11.0229
LeftFoot  8.13788 5.03677 -28.9719
LeftToes  7.40077e-010 7.2695e-011 -6.03601e-011
346
root  -7.75315 35.8939 10.0848 -58.4001 -79.8805 46.1047
RightUpLeg  0.193458 -11.0561 -38.3594
RightLeg  33.3964 -7.92492 -5.80691
RightFoot  0.955914 -3.52642 32.0242
RightToes  6.35927e-011 1.30204e-014 -6.03759e-014
Spine  24.012 -0.350372 7.43084
Spine1  0.922917 2.6975 -7.93001
HEad  -13.0171 -9.86639 -9.32975
LeftShoulder1  1.8755 -3.44296 -20.5797
LeftArm  -13.7259 18.1052 -45.8714
LeftForeArm  -177.135 -70.8711 -153.842
LeftHand  -3.94906 19.0023 -30.2817
RightShoulder  1.39966 2.03693 18.8255
RightArm  -8.67291 -24.7328 42.9283
RightForeArm  -178.619 67.8366 157.46
RightHand  -0.764133 -8.87128 22.0249
LeftUpLeg  -17.8286 23.9042 19.061
LeftLeg  61.8443 -4.79384 -9.09215
LeftFoot  13.3884 6.28311 -28.4899
LeftToes  7.40077e-010 7.2695e-011 -6.03601e-011
347
root  -8.03194 36.4599 11.0449 -66.3303 -76.9593 55.4066
RightUpLeg  0.650152 -5.97767 -41.5113
RightLeg  29.3714 -13.6958 -8.39312
RightFoot  8.04712 -5.60145 32.3378
RightToes  6.35927e-011 1.30204e-014 -6.03759e-014
Spine  22.7791 0.100339 10.0778
Spine1  0.0571683 4.04333 -12.5823
HEad  -10.3042 -12.6892 -11.9836
LeftShoulder1  1.75265 -3.09282 -20.1208
LeftArm  -13.7816 21.0733 -43.8157
LeftForeArm  -162.976 -67.2168 -159.713
LeftHand  -0.881099 11.0804 -15.6764
RightShoulder  1.26634 1.74907 17.5791
RightArm  -9.39606 -27.0095 40.329
RightForeArm  -179.427 61.9009 162.538
RightHand  -0.103366 -6.44535 9.19041
LeftUpLeg  -18.2209 31.6426 13.9808
LeftLeg  57.7491 -5.25967 -8.35518
LeftFoot  15.0874 6.76495 -28.6883
LeftToes  7.40077e-010 7.2695e-011 -6.03601e-011
348
root  -8.33799 36.8655 11.8867 -65.8297 -74.221 57.274
RightUpLeg  0.570929 -1.22352 -42.7226
RightLeg  27.5072 -23.0388 -12.6824
RightFoot  13.5336 -7.09992 31.8711
RightToes  6.35927e-011 1.30204e-014 -6.03759e-014
Spine  20.505 0.405458 11.1321
Spine1  -1.13751 4.30872 -15.1109
HEad  -7.65483 -13.8318 -14.6122
LeftShoulder1  1.75662 -3.10439 -20.1312
LeftArm  -14.46 25.2116 -41.3945
LeftForeArm  -156.16 -64.3217 -162.807
LeftHand  0.0649465 8.16245 3.37098
RightShoulder  1.18612 1.62393 16.5149
RightArm  -9.80056 -27.8663 38.3138
RightForeArm  178.149 57.2845 165.17
RightHand  -0.00283875 -4.91827 3.26611
LeftUpLeg  -19.5176 35.0792 8.17685
LeftLeg  52.2874 -7.56192 -9.87229
LeftFoot  16.5426 6.71144 -27.0251
LeftToes  7.40077e-010 7.2695e-011 -6.03601e-011
349
root  -8.62992 37.0452 12.593 -62.3103 -71.4296 56.1694
RightUpLeg  0.353668 -1.02374 -44.1775
RightLeg  27.8613 -30.3349 -16.3365
RightFoot  15.5587 -7.45961 30.9624
RightToes  6.35927e-011 1.30204e-014 -6.03759e-014
Spine  18.1221 0.370613 10.7476
Spine1  -2.33111 3.8353 -16.6484
HEad  -5.79478 -14.2214 -15.9389
LeftShoulder1  1.84647 -3.39714 -20.3215
LeftArm  -15.9148 29.4923 -39.186
LeftForeArm  -155.301 -62.6124 -164.098
LeftHand  0.271003 6.99251 18.3088
RightShoulder  1.16111 1.59271 16.1303
RightArm  -9.29871 -28.3884 36.8509
RightForeArm  177.719 54.1006 166.745
RightHand  -0.0164517 -4.81448 1.98025
LeftUpLeg  -19.9456 32.9497 2.45944
LeftLeg  47.0944 -9.75896 -10.6897
LeftFoot  14.0866 5.33048 -23.6105
LeftToes  7.40077e-010 7.2695e-011 -6.03601e-011
350
root  -8.8529 36.8819 13.2874 -62.2731 -69.7386 57.6631
RightUpLeg  -1.18956 -3.90908 -46.4288
RightLeg  29.5577 -30.8007 -17.5793
RightFoot  15.1128 -6.83138 28.9417
RightToes  6.35927e-011 1.30204e-014 -6.03759e-014
Spine  17.0436 0.363651 10.3103
Spine1  -3.16598 3.68223 -18.3047
HEad  -5.62427 -14.6291 -15.8537
LeftShoulder1  1.89859 -3.60826 -20.2559
LeftArm  -17.576 32.8928 -39.3149
LeftForeArm  -155.323 -62.4802 -164.181
LeftHand  0.248318 6.54441 23.0955
RightShoulder  1.16032 1.51858 16.4846
RightArm  -8.35053 -29.4739 36.4458
RightForeArm  178.814 52.9013 167.383
RightHand  -0.0260199 -5.29271 3.16662
LeftUpLeg  -18.5047 27.8925 -1.62551
LeftLeg  43.7764 -8.71301 -8.43859
LeftFoot  4.99858 2.96816 -20.7115
LeftToes  7.40077e-010 7.2695e-011 -6.03601e-011
351
root  -8.97545 36.3135 13.8803 -67.0337 -70.0933 62.6377
RightUpLeg  -4.31005 -5.50054 -48.1444
RightLeg  32.5818 -26.4632 -17.222
RightFoot  13.43 -5.8274 26.5224
RightToes  6.35927e-011 1.30204e-014 -6.03759e-014
Spine  17.6986 0.726884 9.72169
Spine1  -3.04559 4.1244 -18.9347
HEad  -7.73431 -14.7831 -15.0738
LeftShoulder1  1.85653 -3.48302 -20.1245
LeftArm  -19.6147 34.5361 -42.4112
LeftForeArm  -156.349 -64.3133 -162.768
LeftHand  0.430091 8.59959 16.7198
RightShoulder  1.15781 1.36911 17.2057
RightArm  -8.66225 -30.489 38.1346
RightForeArm  175.721 54.9132 166.196
RightHand  -0.111095 -6.23249 7.52406
LeftUpLeg  -17.1955 23.8621 -3.5959
LeftLeg  43.9931 -4.97117 -4.65629
LeftFoot  -5.4801 1.0417 -19.7639
LeftToes  7.40077e-010 7.2695e-011 -6.03601e-011
